PathFileType	4	(X/Y/Z)	C:/Users/Carlo/Dropbox/Carlos/SARAH/CongressoMarcha2025/WorkshopOpenSim/C3D/Caso02/Walking04.c3d.trc
DataRate	CameraRate	NumFrames	NumMarkers	Units	OrigDataRate	OrigDataStartFrame	OrigNumFrames
100.000000	100.000000	2	197	mm	100.000000	0	321
Frame#	Time	LFHD			RFHD			LBHD			RBHD			C7			STRN			LSHO			LUPA			LELB			LFRM			LWRA			LFIN			RSHO			RUPA			RELB			RFRM			RWRA			RWRB			RFIN			RASI			LANK			LHEE			LTOE			RTHI			RKNE			RTIB			RANK			RHEE			RTOE			PELO			PELA			PELL			PELP			LFEO			LFEA			LFEL			LFEP			LTIO			LTIA			LTIL			LTIP			LFOO			LFOA			LFOL			LFOP			RFEO			RFEA			RFEL			RFEP			RTIO			RTIA			RTIL			RTIP			RFOO			RFOA			RFOL			RFOP			LTOO			LTOA			LTOL			LTOP			RTOO			RTOA			RTOL			RTOP			HEDO			HEDA			HEDL			HEDP			LCLO			LCLA			LCLL			LCLP			RCLO			RCLA			RCLL			RCLP			TRXO			TRXA			TRXL			TRXP			LHUO			LHUA			LHUL			LHUP			LRAO			LRAA			LRAL			LRAP			LHNO			LHNA			LHNL			LHNP			RHUO			RHUA			RHUL			RHUP			RRAO			RRAA			RRAL			RRAP			RHNO			RHNA			RHNL			RHNP			LWRB			LTIB			LASI			LTHI			LKNE			RPSI			CLAV			RBAK			LPSI			T10			LHipAngles			LKneeAngles			LAbsAnkleAngle			LAnkleAngles			RHipAngles			RKneeAngles			RAnkleAngles			RAbsAnkleAngle			LPelvisAngles			RPelvisAngles			LFootProgressAngles			RFootProgressAngles			RNeckAngles			LNeckAngles			RSpineAngles			LSpineAngles			LShoulderAngles			LElbowAngles			LWristAngles			RShoulderAngles			RElbowAngles			RWristAngles			RThoraxAngles			LThoraxAngles			RHeadAngles			LHeadAngles			LHipPower			LKneePower			LAnklePower			RHipPower			RKneePower			RAnklePower			LWaistPower			RWaistPower			LNeckPower			RNeckPower			LShoulderPower			RShoulderPower			LElbowPower			RElbowPower			LWristPower			RWristPower			LGroundReactionForce			LNormalisedGRF			RGroundReactionForce			RNormalisedGRF			LAnkleForce			RAnkleForce			RKneeForce			LKneeForce			RHipForce			LHipForce			LWaistForce			RWaistForce			LNeckForce			RNeckForce			LShoulderForce			RShoulderForce			LElbowForce			RElbowForce			LWristForce			RWristForce			LGroundReactionMoment			RGroundReactionMoment			LAnkleMoment			RAnkleMoment			RKneeMoment			LKneeMoment			RHipMoment			LHipMoment			LWaistMoment			RWaistMoment			LNeckMoment			RNeckMoment			LShoulderMoment			RShoulderMoment			LElbowMoment			RElbowMoment			LWristMoment			RWristMoment			CentreOfMass			CentreOfMassFloor			
		X1	Y1	Z1	X2	Y2	Z2	X3	Y3	Z3	X4	Y4	Z4	X5	Y5	Z5	X6	Y6	Z6	X7	Y7	Z7	X8	Y8	Z8	X9	Y9	Z9	X10	Y10	Z10	X11	Y11	Z11	X12	Y12	Z12	X13	Y13	Z13	X14	Y14	Z14	X15	Y15	Z15	X16	Y16	Z16	X17	Y17	Z17	X18	Y18	Z18	X19	Y19	Z19	X20	Y20	Z20	X21	Y21	Z21	X22	Y22	Z22	X23	Y23	Z23	X24	Y24	Z24	X25	Y25	Z25	X26	Y26	Z26	X27	Y27	Z27	X28	Y28	Z28	X29	Y29	Z29	X30	Y30	Z30	X31	Y31	Z31	X32	Y32	Z32	X33	Y33	Z33	X34	Y34	Z34	X35	Y35	Z35	X36	Y36	Z36	X37	Y37	Z37	X38	Y38	Z38	X39	Y39	Z39	X40	Y40	Z40	X41	Y41	Z41	X42	Y42	Z42	X43	Y43	Z43	X44	Y44	Z44	X45	Y45	Z45	X46	Y46	Z46	X47	Y47	Z47	X48	Y48	Z48	X49	Y49	Z49	X50	Y50	Z50	X51	Y51	Z51	X52	Y52	Z52	X53	Y53	Z53	X54	Y54	Z54	X55	Y55	Z55	X56	Y56	Z56	X57	Y57	Z57	X58	Y58	Z58	X59	Y59	Z59	X60	Y60	Z60	X61	Y61	Z61	X62	Y62	Z62	X63	Y63	Z63	X64	Y64	Z64	X65	Y65	Z65	X66	Y66	Z66	X67	Y67	Z67	X68	Y68	Z68	X69	Y69	Z69	X70	Y70	Z70	X71	Y71	Z71	X72	Y72	Z72	X73	Y73	Z73	X74	Y74	Z74	X75	Y75	Z75	X76	Y76	Z76	X77	Y77	Z77	X78	Y78	Z78	X79	Y79	Z79	X80	Y80	Z80	X81	Y81	Z81	X82	Y82	Z82	X83	Y83	Z83	X84	Y84	Z84	X85	Y85	Z85	X86	Y86	Z86	X87	Y87	Z87	X88	Y88	Z88	X89	Y89	Z89	X90	Y90	Z90	X91	Y91	Z91	X92	Y92	Z92	X93	Y93	Z93	X94	Y94	Z94	X95	Y95	Z95	X96	Y96	Z96	X97	Y97	Z97	X98	Y98	Z98	X99	Y99	Z99	X100	Y100	Z100	X101	Y101	Z101	X102	Y102	Z102	X103	Y103	Z103	X104	Y104	Z104	X105	Y105	Z105	X106	Y106	Z106	X107	Y107	Z107	X108	Y108	Z108	X109	Y109	Z109	X110	Y110	Z110	X111	Y111	Z111	X112	Y112	Z112	X113	Y113	Z113	X114	Y114	Z114	X115	Y115	Z115	X116	Y116	Z116	X117	Y117	Z117	X118	Y118	Z118	X119	Y119	Z119	X120	Y120	Z120	X121	Y121	Z121	X122	Y122	Z122	X123	Y123	Z123	X124	Y124	Z124	X125	Y125	Z125	X126	Y126	Z126	X127	Y127	Z127	X128	Y128	Z128	X129	Y129	Z129	X130	Y130	Z130	X131	Y131	Z131	X132	Y132	Z132	X133	Y133	Z133	X134	Y134	Z134	X135	Y135	Z135	X136	Y136	Z136	X137	Y137	Z137	X138	Y138	Z138	X139	Y139	Z139	X140	Y140	Z140	X141	Y141	Z141	X142	Y142	Z142	X143	Y143	Z143	X144	Y144	Z144	X145	Y145	Z145	X146	Y146	Z146	X147	Y147	Z147	X148	Y148	Z148	X149	Y149	Z149	X150	Y150	Z150	X151	Y151	Z151	X152	Y152	Z152	X153	Y153	Z153	X154	Y154	Z154	X155	Y155	Z155	X156	Y156	Z156	X157	Y157	Z157	X158	Y158	Z158	X159	Y159	Z159	X160	Y160	Z160	X161	Y161	Z161	X162	Y162	Z162	X163	Y163	Z163	X164	Y164	Z164	X165	Y165	Z165	X166	Y166	Z166	X167	Y167	Z167	X168	Y168	Z168	X169	Y169	Z169	X170	Y170	Z170	X171	Y171	Z171	X172	Y172	Z172	X173	Y173	Z173	X174	Y174	Z174	X175	Y175	Z175	X176	Y176	Z176	X177	Y177	Z177	X178	Y178	Z178	X179	Y179	Z179	X180	Y180	Z180	X181	Y181	Z181	X182	Y182	Z182	X183	Y183	Z183	X184	Y184	Z184	X185	Y185	Z185	X186	Y186	Z186	X187	Y187	Z187	X188	Y188	Z188	X189	Y189	Z189	X190	Y190	Z190	X191	Y191	Z191	X192	Y192	Z192	X193	Y193	Z193	X194	Y194	Z194	X195	Y195	Z195	X196	Y196	Z196	X197	Y197	Z197	

1	0	1518.49267578125	1689.808593750001	177.7712707519532	1517.516967773438	1680.785278320313	51.3550720214844	1673.504516601563	1668.906127929688	176.1596069335938	1657.448242187501	1667.607788085938	35.09983444213869	1713.136840820313	1489.069458007813	101.0746688842774	1523.437377929688	1247.806884765625	123.1674346923829	1687.621704101563	1431.144409179688	311.4859313964845	1715.449340820313	1270.833740234375	361.8652343750001	1764.380126953126	1103.859375	377.5764465332032	1748.411254882813	977.775756835938	406.8243408203127	1675.928100585938	848.8232421875005	375.5472412109376	1688.137084960938	773.872680664063	433.244812011719	1634.235107421876	1420.387817382813	-102.6307754516602	1595.195190429688	1214.239868164063	-171.7590637207032	1571.234252929688	1096.971801757813	-193.6261596679689	1449.291137695313	1011.844604492188	-188.3865051269532	1360.113891601563	928.4365234375005	-146.0644531250001	1413.314453125	884.829956054688	-182.5727081298829	1326.41064453125	858.8422851562505	-190.9190826416016	1581.924804687501	999.7225952148442	16.83493614196778	1329.422241210938	96.48329925537115	289.7522888183595	1356.633544921875	38.46359634399415	243.9172363281251	1186.973022460938	123.6217117309571	258.8821411132814	1696.807006835938	642.044372558594	-25.34463691711427	1757.037231445313	495.1809997558596	6.386230468750004	1851.239013671876	260.1849060058595	-3.810710906982424	1920.131469726563	88.0588302612305	9.607406616210941	1992.468139648438	63.57062530517581	52.76938629150393	1792.191040039063	40.27451705932619	57.28397369384768	1634.614868164063	900.6308593750005	124.3647003173829	1504.767333984375	894.8762207031255	123.3360824584962	1633.659301757813	898.9614868164067	254.3295135498048	1628.847656250001	1030.471801757813	125.9900741577149	1502.18603515625	504.636169433594	221.0162658691407	1110.7822265625	629.9553833007815	145.5691223144532	1440.3642578125	558.2396240234377	630.7708740234377	1634.757690429688	899.624633789063	189.3462371826172	1321.523803710938	97.32866668701178	245.4589691162111	940.275756835938	270.7107543945314	316.7537536621095	1396.094360351563	89.34751129150393	663.6334228515627	1493.5224609375	485.1035156250002	222.1884307861329	1198.829711914063	142.4817504882813	265.9599914550782	1277.287719726563	309.6770629882814	258.8108825683595	1212.115478515625	144.1295471191407	450.3015136718752	1365.649536132813	63.71598052978518	254.6410980224611	1773.063720703126	501.4565734863284	64.38640594482425	1388.8994140625	369.9165649414064	184.7703552246094	1885.257080078126	545.388122558594	470.4158630371096	1634.471801757813	901.6372070312505	59.38315582275393	1928.661376953126	90.14347076416018	53.7424011230469	1545.349121093751	-56.95842742919925	134.7716369628907	2007.986206054688	109.5301132202149	464.1869812011721	1780.633422851563	481.4467468261721	63.86860656738284	1795.995483398438	61.60736465454104	42.49478912353517	1772.887084960938	250.3495178222657	45.49650955200197	1798.211059570313	58.85462188720706	232.6371459960939	1984.748413085938	84.74666595458987	40.63032150268556	1143.22314453125	168.7369842529297	269.7329406738282	1169.375732421875	224.468719482422	267.3498535156251	1147.651733398438	169.2863006591797	331.1800842285157	1198.829711914063	142.4817810058594	265.9599914550782	1733.077758789063	53.8942565917969	43.11628723144533	1725.375000000001	116.8083267211915	44.11688232421876	1733.816284179688	52.97666931152347	106.4970855712891	1795.995483398438	61.60733032226565	42.49480056762697	1699.411865234376	1595.871582031251	106.2056198120118	1474.377685546875	1621.873779296876	119.8377075195313	1714.125488281251	1604.569946289063	332.5022888183595	1724.817749023438	1821.150390625001	95.89453125000003	1682.047485351563	1374.534057617188	300.1644897460939	1491.240478515625	1372.023193359375	406.6672668457034	1703.050537109376	1587.831176757813	342.8214416503907	1577.606079101563	1422.015014648438	114.1698913574219	1632.056152343751	1364.503173828125	-87.26399230957034	1422.730834960938	1357.644653320313	-141.8891906738282	1623.924438476563	1155.952270507813	-29.91833877563478	1577.605957031251	1422.015014648438	114.1699676513672	1577.606079101563	1422.014892578125	114.1699142456055	1360.60302734375	1415.954833984375	127.364372253418	1564.689697265626	1412.31005859375	-102.7174301147462	1584.238159179688	1204.827758789063	123.4931640625001	1780.448974609376	1104.177490234375	337.1543273925782	2052.607177734376	1198.566162109375	303.0315551757814	1760.682006835938	1057.89697265625	51.47772216796878	1682.047485351563	1374.533935546875	300.1644592285157	1713.079833984376	840.0026855468755	384.6130065917971	1962.078491210938	775.2919311523442	377.867156982422	1695.542236328126	798.9420776367192	131.1573181152344	1775.733032226563	1085.685180664063	340.4764709472657	1679.257446289063	688.704284667969	438.5231933593752	1628.416992187501	751.0488891601565	581.5961914062502	1831.614868164063	675.920837402344	498.2332763671877	1713.079833984376	840.0026855468755	384.612976074219	1595.925292968751	1085.0107421875	-159.8691711425782	1875.638671875001	1069.317626953125	-238.6540527343751	1524.176513671875	1164.576293945313	-430.450622558594	1632.056152343751	1364.503051757813	-87.26399230957034	1388.802856445313	904.0300903320317	-158.1654968261719	1544.860839843751	724.5439453125002	-252.3252563476564	1325.736450195313	973.967163085938	-396.003356933594	1581.426757812501	1072.342163085938	-159.7499542236329	1276.476318359375	792.5324707031255	-180.0991210937501	1236.475341796875	860.1962890625005	-319.2091064453126	1170.115112304688	884.836059570313	-104.6180953979493	1388.802978515625	904.0300903320317	-158.1655273437501	1745.439086914063	835.0347290039067	406.2561035156252	1430.772094726563	312.7494506835939	305.7808532714845	1580.330932617188	996.938110351563	233.6177673339845	1557.712280273438	736.687194824219	318.3993225097657	1493.23486328125	512.3974609375002	280.3449096679689	1772.640502929688	1007.200744628907	57.70095443725589	1570.621582031251	1421.81982421875	114.5945892333985	1788.777832031251	1320.728149414063	49.12947082519534	1766.642700195313	1006.162292480469	196.2912597656251	1773.686401367188	1225.389770507813	111.2907485961915	-5.178483009338381	10.26704120635987	21.08017730712891	0.1993335336446763	-20.46843719482423	-5.485469818115236	0	0	1.158226251602173	-1.12032961845398	6.093420028686527	1.164780616760254	1.234328985214234	17.1535930633545	-16.57240104675294	-1.517685413360597	-5.365289211273195	2.139311075210572	2.240444898605348	-10.61181068420411	13.98546218872071	0	0	13.7415361404419	-0.7164851427078249	0.4534575343132021	2.543266773223878	0.7164851427078249	-0.4534575343132021	2.543266773223878	-2.220955848693849	-3.511022567749025	-115.2748260498047	-0.9044504761695866	0.5617420077323916	-83.0109558105469	-0.3694206476211549	-0.3015124201774598	-8.168414115905765	0.3694206476211549	0.3015124201774598	-8.168414115905765	3.118986845016481	-3.973724603652956	-0.9867727756500249	-3.118986845016481	3.973724603652956	-0.9867727756500249	6.373199462890629	-0.7634337544441228	-17.74401664733887	0	-5.033426366679585e-12	34.00156021118165	9.343643188476566	114.4934844970704	-1.381929159164429	17.56614875793458	10.58311080932618	7.78748989105225	1.192708045940846e-15	2.003749407066339e-13	43.62648010253908	6.325000762939457	96.77011108398443	-6.428068637847904	-2.456895351409913	3.481334686279299	1.74903702735901	2.456895351409913	-3.481334686279299	1.74903702735901	-2.604127168655396	3.447303056716921	6.434340953826908	2.604127168655396	-3.447303056716921	6.434340953826908	0	-0.4423893094062807	0	0	-0.4909245371818545	0	0	-0.02427316084504129	0	nan	nan	nan	nan	nan	nan	nan	nan	nan	nan	nan	nan	nan	nan	nan	nan	nan	nan	nan	nan	nan	0	-0.0002647971850819887	0	0	-0.003692987607792022	0	0	-0.006685403175652031	0	0	-0.001828290987759829	0	0	-0.0001341993047390134	0	0	-7.7806122135371e-05	0	nan	nan	nan	nan	nan	nan	nan	nan	nan	nan	nan	nan	0.07117560505867007	-0.2741427421569825	-0.1231747195124627	nan	nan	nan	nan	nan	nan	0.1050006374716759	0.6542728543281557	-0.6092262268066408	nan	nan	nan	0.03818362206220628	1.673375964164735	-0.4305684268474581	nan	nan	nan	nan	nan	nan	nan	nan	nan	nan	nan	nan	-0.1165559589862824	0.5371953248977663	0.06692799925804141	0.08097465336322787	0.5307397842407229	0.02636014856398107	-0.0550402104854584	0.2111742347478868	-0.107807070016861	0.01638846844434739	0.1929154694080354	-0.1104793250560761	-0.01085714064538479	0.05701040849089625	0.03293849155306817	0.01186847686767579	0.0543162673711777	0.01087862346321345	nan	nan	nan	nan	nan	nan	-1.515824539659642e-15	24.30735588073732	0.7582967877388005	nan	nan	nan	nan	nan	nan	25.55212974548341	24.28552436828615	-314.3876342773439	nan	nan	nan	-104.1088943481446	14.90220546722413	580.4929199218752	nan	nan	nan	nan	nan	nan	nan	nan	nan	nan	nan	nan	31.84068870544435	-5.834743976593019	-6.662046432495121	10.00241565704346	-1.51036298274994	7.517076969146732	10.82304286956787	0.2625614106655122	-18.07401275634766	2.307711362838746	0.1130784451961518	-12.44037628173829	0.5981202125549319	2.936909926476549e-15	2.019302129745484	0.4099800586700442	-7.105427198782327e-17	0.5957379341125491	1636.441040039063	984.910278320313	124.137062072754	1636.441040039063	0	124.137062072754	
2	0.01	1505.652221679688	1687.646362304688	180.8856506347657	1504.75	1678.829345703126	54.43490982055667	1660.671997070313	1666.710693359376	179.3171844482422	1644.688842773438	1665.660400390626	38.22519683837892	1700.213378906251	1486.872314453125	103.9735946655274	1510.147705078125	1245.858520507813	125.2075958251954	1674.777099609376	1428.217895507813	314.1912536621095	1702.325073242188	1267.7080078125	364.1839294433595	1750.972778320313	1100.620971679688	379.7121887207032	1735.440429687501	974.5255737304692	408.6907958984377	1663.403320312501	845.3623657226567	377.2058105468751	1675.865112304688	770.3603515625005	434.7406005859377	1621.757568359376	1418.404907226563	-99.98804473876959	1582.395874023438	1212.319580078125	-168.9234619140626	1558.080444335938	1095.088012695313	-190.8802337646485	1436.041625976563	1010.003234863282	-185.5563659667969	1346.977661132813	926.5371093750005	-143.1674499511719	1400.101440429688	883.0209350585942	-179.9341583251954	1313.189697265625	857.0092163085942	-188.0017852783204	1569.758789062501	997.3765258789067	17.63885498046876	1307.373046875	97.61201477050787	290.6524963378907	1333.51171875	38.97825241088869	244.8949127197267	1165.31689453125	127.1567840576172	258.2514953613282	1687.312500000001	640.4515380859377	-24.02304840087892	1748.795043945313	493.9949645996096	7.630010604858402	1846.937011718751	260.6701660156251	-2.926594734191895	1918.984497070313	89.85340881347659	9.71502780914307	1991.764526367188	66.56528472900393	52.79000091552737	1791.988281250001	40.23669815063478	57.41334915161136	1621.944335937501	898.2590942382817	125.4088287353516	1492.135498046875	891.967407226563	123.2606964111329	1619.889404296876	896.2890625000005	255.3566741943361	1615.621582031251	1028.07080078125	127.2768096923829	1487.49658203125	503.0479431152346	222.4016571044923	1097.683349609375	629.1359863281252	142.2728729248047	1421.529541015625	558.6709594726565	630.846862792969	1621.538208007813	897.105102539063	190.3867950439454	1299.632934570313	98.58483886718756	246.3338470458986	920.873657226563	278.6578063964845	316.4366455078126	1372.770385742188	89.39273071289065	665.1007080078127	1478.494873046875	483.6672668457034	223.5484313964845	1177.492797851563	145.8110504150391	265.4218139648439	1258.80126953125	311.6634216308595	258.8712158203126	1188.792724609375	147.5572967529297	449.894714355469	1343.08935546875	64.2578048706055	256.0501098632814	1764.620849609376	500.3999938964846	65.67112731933597	1381.27001953125	365.2825317382814	185.1081237792969	1875.440673828126	545.251159667969	472.103210449219	1622.350341796876	899.412963867188	60.43084716796878	1927.693481445313	92.05042266845706	53.80956649780276	1547.578369140626	-62.15077972412112	136.5672149658204	2008.679687500001	112.4810104370118	463.856140136719	1772.554565429688	480.5333251953127	65.09407043457034	1795.438110351563	61.63374328613284	42.65623855590822	1769.629882812501	250.0200500488282	45.99450302124025	1797.900268554688	58.60181427001956	232.7913513183595	1983.837890625001	87.47977447509768	40.62878417968751	1122.293701171875	172.9954986572266	268.5456542968751	1149.396606445313	228.2796783447267	266.3621215820314	1126.060302734375	173.5775909423829	330.0366516113282	1177.49267578125	145.811019897461	265.4217834472657	1732.638061523438	53.01840591430667	43.33205413818361	1724.035278320313	115.8138580322266	44.44480133056642	1733.458740234376	52.00776672363284	106.7104415893555	1795.437988281251	61.63377761840823	42.65625762939455	1686.596191406251	1593.793823242188	109.2413635253907	1461.559936523438	1619.813598632813	122.8050384521485	1701.198120117188	1602.104736328126	335.5598144531251	1712.047851562501	1819.085205078126	99.32603454589849	1669.119384765626	1371.654663085938	302.6774291992189	1478.271728515625	1369.0302734375	409.3511352539065	1690.448608398438	1584.891601562501	346.0832824707032	1564.566772460938	1419.946655273438	116.8127746582032	1619.479125976563	1362.509399414063	-84.67510223388675	1410.13720703125	1355.927001953125	-139.8517150878907	1610.970336914063	1153.776489257813	-27.49154281616212	1564.566650390626	1419.946655273438	116.8128128051758	1564.566772460938	1419.946533203125	116.8127899169922	1347.395629882813	1414.125854492188	129.5462036132813	1552.088378906251	1410.662963867188	-100.2527923583985	1570.915771484376	1202.6005859375	125.7433242797852	1767.229248046876	1101.044799804688	339.3662109375001	2039.621337890626	1195.241455078125	305.7369689941407	1747.777343750001	1055.234130859375	53.49163818359378	1669.119384765626	1371.65478515625	302.6773986816407	1700.572753906251	836.649047851563	386.2705078125002	1949.703613281251	772.6528930664067	379.5739746093751	1683.324096679688	796.0273437500005	132.7772064208985	1762.563354492188	1082.536987304688	342.6494750976564	1667.309326171876	685.1843872070315	439.8241271972659	1616.198364257813	747.009704589844	582.9371337890627	1819.615722656251	672.8520507812502	499.5460205078127	1700.572753906251	836.6491088867192	386.2704772949221	1582.808593750001	1083.095458984375	-157.1616668701172	1862.396972656251	1066.893310546875	-236.1494445800782	1510.997436523438	1162.697631835938	-427.6756591796877	1619.479125976563	1362.509399414063	-84.67518615722659	1375.643432617188	902.1589965820317	-155.4100189208985	1531.631713867188	722.6461181640627	-249.6429443359376	1312.513427734375	972.1382446289067	-393.2220458984377	1568.307128906251	1070.429809570313	-157.0390167236329	1263.362670898438	790.6806030273442	-177.0961608886719	1222.84619140625	858.4895019531255	-315.8948974609376	1157.267700195313	882.763305664063	-101.139991760254	1375.643432617188	902.159057617188	-155.4100189208985	1732.931396484376	831.7512207031255	407.916931152344	1412.488403320313	312.2085876464845	307.3475646972657	1566.330444335938	994.0900268554692	234.429412841797	1542.519409179688	734.739196777344	319.3062438964845	1477.936401367188	511.109069824219	281.5951538085939	1759.840698242188	1005.488525390625	60.37133789062503	1557.581176757813	1419.75927734375	117.2223587036133	1775.989501953126	1318.60693359375	52.10464096069339	1752.961181640626	1004.22509765625	198.7524414062501	1760.432250976563	1223.090209960938	113.9723587036133	-5.511994838714601	10.518705368042	21.51767730712891	0.1012984663248063	-21.0078353881836	-6.255911350250248	0	0	1.146331191062928	-1.232159137725831	6.529245376586918	1.153833985328675	1.222312688827515	17.52153015136719	-16.8615951538086	-1.557256698608399	-4.986813068389894	2.694002151489259	2.293177127838136	-10.83100891113282	14.22722530364991	0	0	13.96858215332032	-0.8234263658523564	0.9470800161361699	2.788509845733643	0.8234263658523564	-0.9470800161361699	2.788509845733643	-2.033708810806275	-2.906432628631593	-116.2193984985352	-1.005850315093995	0.6108397841453554	-82.18852233886722	-0.3567506670951844	-0.3917872011661532	-8.105065345764164	0.3567506670951844	0.3917872011661532	-8.105065345764164	3.104034185409548	-4.354419231414797	-1.30103623867035	-3.104034185409548	4.354419231414797	-1.30103623867035	6.37350702285767	-0.8107150793075566	-17.76205062866212	-1.590277359294756e-15	-1.428665454168699e-12	33.78096389770509	9.337218284606937	114.4868850708008	-1.44109332561493	17.42634582519532	10.73797607421875	7.866720676422123	-1.04361955343313e-15	1.876527226793088e-13	43.53281021118165	6.245515823364261	96.96088409423834	-6.419993400573734	-2.351907014846803	3.357205152511598	1.673223495483399	2.351907014846803	-3.357205152511598	1.673223495483399	-2.5041241645813	3.429748058319094	6.445512294769291	2.5041241645813	-3.429748058319094	6.445512294769291	0	-0.3672125637531282	0	0	-0.3530190587043763	0	0	-0.01373690366744996	0	nan	nan	nan	nan	nan	nan	nan	nan	nan	nan	nan	nan	nan	nan	nan	nan	nan	nan	nan	nan	nan	0	0.0004883167566731574	0	0	-0.004467437043786051	0	0	-0.008107966743409637	0	0	-0.001909880200400949	0	0	-0.0001739214640110732	0	0	-6.127888627815994e-05	0	nan	nan	nan	nan	nan	nan	nan	nan	nan	nan	nan	nan	0.0681961998343468	-0.261425018310547	-0.1035787835717202	nan	nan	nan	nan	nan	nan	0.1408758908510209	0.6377024650573733	-0.5818390250205996	nan	nan	nan	0.084500826895237	1.665957927703858	-0.3413923382759095	nan	nan	nan	nan	nan	nan	nan	nan	nan	nan	nan	nan	-0.1109644025564194	0.575507700443268	0.06802785396575931	0.08745218813419345	0.5550889372825625	0.02214586175978184	-0.04670565575361253	0.227873057126999	-0.1176365390419961	0.01957993581891061	0.203098088502884	-0.1128436103463173	-0.01699278503656388	0.06088549643754962	0.03282732143998147	0.01117372047156096	0.05701971054077151	0.01264712307602168	nan	nan	nan	nan	nan	nan	0	20.83702087402344	3.561564683914186	nan	nan	nan	nan	nan	nan	50.20277404785159	20.76058578491212	-308.986297607422	nan	nan	nan	-81.873161315918	13.13473796844483	573.0295410156252	nan	nan	nan	nan	nan	nan	nan	nan	nan	nan	nan	nan	28.29587554931642	-4.849396228790285	-8.403222084045414	11.78919506072998	-2.079564809799195	8.9074239730835	9.188658714294437	0.312424123287201	-20.31621360778809	3.150572061538698	0.124767653644085	-12.44742298126221	0.9733732342720036	-2.486899532808704e-15	1.985215067863465	0.3534294962882997	-4.736951818785279e-16	0.7384008765220644	1623.678955078126	983.0331420898442	125.9629287719727	1623.678955078126	0	125.9629287719727	
